<?xml version="1.0" standalone="no"?>
<!DOCTYPE svg PUBLIC "-//W3C//DTD SVG 1.1//EN" "http://www.w3.org/Graphics/SVG/1.1/DTD/svg11.dtd">

<svg width="800" height="600" version="1.1" xmlns="http://www.w3.org/2000/svg">
	<ellipse stroke="black" stroke-width="1" fill="none" cx="430.5" cy="186.5" rx="30" ry="30"/>
	<text x="412.5" y="192.5" font-family="Times New Roman" font-size="20">Map</text>
	<ellipse stroke="black" stroke-width="1" fill="none" cx="430.5" cy="384.5" rx="30" ry="30"/>
	<text x="406.5" y="390.5" font-family="Times New Roman" font-size="20">NoOp</text>
	<ellipse stroke="black" stroke-width="1" fill="none" cx="691.5" cy="384.5" rx="30" ry="30"/>
	<text x="661.5" y="390.5" font-family="Times New Roman" font-size="20">Reduce</text>
	<ellipse stroke="black" stroke-width="1" fill="none" cx="193.5" cy="384.5" rx="30" ry="30"/>
	<text x="150.5" y="390.5" font-family="Times New Roman" font-size="20">ShutDown</text>
	<ellipse stroke="black" stroke-width="1" fill="none" cx="193.5" cy="384.5" rx="24" ry="24"/>
	<polygon stroke="black" stroke-width="1" points="430.5,216.5 430.5,354.5"/>
	<polygon fill="black" stroke-width="1" points="430.5,354.5 435.5,346.5 425.5,346.5"/>
	<text x="271.5" y="291.5" font-family="Times New Roman" font-size="20">All Maps Assigned</text>
	<path stroke="black" stroke-width="1" fill="none" d="M 454.235,366.2 A 194.87,194.87 0 0 1 667.765,366.2"/>
	<polygon fill="black" stroke-width="1" points="667.765,366.2 663.812,357.635 658.333,366"/>
	<text x="486.5" y="325.5" font-family="Times New Roman" font-size="20">All Maps Finished</text>
	<path stroke="black" stroke-width="1" fill="none" d="M 666.046,400.335 A 223.465,223.465 0 0 1 455.954,400.335"/>
	<polygon fill="black" stroke-width="1" points="455.954,400.335 460.665,408.508 465.365,399.682"/>
	<text x="472.5" y="447.5" font-family="Times New Roman" font-size="20">All Reduces Assigned</text>
	<path stroke="black" stroke-width="1" fill="none" d="M 409.322,405.68 A 153.334,153.334 0 0 1 214.678,405.68"/>
	<polygon fill="black" stroke-width="1" points="214.678,405.68 217.687,414.622 224.034,406.894"/>
	<text x="225.5" y="461.5" font-family="Times New Roman" font-size="20">All Reduces Finished</text>
</svg>
